#N canvas 7 23 1271 747 10;
#X declare -lib cyclone;
#X declare -lib mrpeach;
#X obj -19650 144 netsend;
#X obj -19650 14 loadbang;
#X floatatom -19650 184 5 0 0 0 - - -;
#X msg -19650 54 connect localhost 8005;
#X msg -19620 94 send messages to nodejs;
#X floatatom -19318 93 5 0 0 0 - - -;
#X obj -19417 53 netreceive 8006 0;
#X text -19464 8 Making music with wikipedia stream;
#X obj -19201 7 import cyclone;
#X obj -19440 124 spell;
#X obj -19440 155 iter;
#X text -19357 133 Ascii codes for capital alphabets: http://www.kerryr.net/pioneers/ascii2.htm
;
#X obj -19150 545 perk-bassdrum_laura01;
#X obj -19414 643 output~;
#X obj -19133 369 perk-snare_laura01;
#X msg -18731 148 0 \$1;
#X msg -18798 55 0.1 1000;
#X msg -18713 57 -0.1 1000;
#X msg -18676 217 1 1000;
#X msg -18739 55 0;
#X msg -18734 219 0.5 1000;
#X obj -18731 117 line 0 20;
#X obj -18734 252 line 1 20;
#X msg -18733 277 6 \$1;
#X text -18694 277 muliply slider 6 by amount \$1;
#X text -18690 147 add amount \$1 to slider 0;
#X msg -18879 136 1 \$1;
#X text -18778 29 ADDITION MODULATION;
#X text -18734 193 MULTIPLICATION MODULATION;
#X floatatom -18882 84 5 0 100 0 - - -;
#X obj -18881 110 / 100;
#X text -18885 62 SET CONTROL;
#X text -18839 140 set slider 1;
#X text -18838 158 to value \$1;
#X text -19434 24 by laura meskanen-kundu;
#X obj -19529 235 hsl 128 15 0 127 0 0 empty empty empty -2 -8 0 10
-262144 -1 -1 0 1;
#X obj -19606 260 f;
#X obj -19564 260 + 1;
#X obj -19553 185 bng 15 250 50 0 empty empty empty 17 7 0 10 -262144
-1 -1;
#X obj -19606 285 mod 16;
#X obj -19649 336 simple-perc-seq;
#X obj -19586 546 voice 1;
#X floatatom -19646 509 5 0 0 0 - - -;
#X floatatom -19646 543 5 0 0 0 - - -;
#X floatatom -19645 580 5 0 0 0 - - -;
#X obj -19551 487 poly 4 0;
#X obj -19553 456 makenote 127 1000;
#X obj -19516 556 voice 2;
#X obj -19456 556 voice 3;
#X obj -19386 556 voice 4;
#X obj -19387 110 print;
#X text -19321 199 scaling the ascii codes into velocity;
#X obj -19266 231 simple-perc-seq2;
#X obj -19357 235 f;
#X obj -19315 235 + 1;
#X obj -19357 206 bng 15 250 50 0 empty empty empty 17 7 0 10 -262144
-1 -1;
#X obj -19357 260 mod 16;
#X obj -19372 182 maxlib/scale 65 90 0 127;
#X obj -18855 446 bng 15 250 50 0 empty empty empty 17 7 0 10 -262144
-1 -1;
#X obj -18854 475 syn-rain_laura01;
#X obj -18884 544 syn-wind_laura01;
#X text -19233 79 65 66 67 68 69 70 71 72 73 74 75 76 77 78 79 80 81
82 83 84 85 86 87 88 89 90;
#X obj -18759 350 perk-bell_laura01;
#X obj -18628 468 import mrpeach;
#X msg -18520 540 disconnect;
#X obj -18577 608 udpsend;
#X msg -18578 514 connect localhost 12000;
#X text -19640 596 velocity;
#X text -19644 561 pitch;
#X text -19648 491 voice number;
#X obj -18650 655 print;
#X msg -18681 511 send /notes \$1;
#X obj -18648 555 packOSC;
#X connect 0 0 2 0;
#X connect 1 0 3 0;
#X connect 3 0 0 0;
#X connect 4 0 0 0;
#X connect 6 0 9 0;
#X connect 6 0 50 0;
#X connect 6 1 5 0;
#X connect 9 0 10 0;
#X connect 10 0 35 0;
#X connect 10 0 38 0;
#X connect 10 0 57 0;
#X connect 10 0 58 0;
#X connect 12 0 13 0;
#X connect 12 0 13 1;
#X connect 14 0 13 0;
#X connect 14 0 13 1;
#X connect 15 0 14 2;
#X connect 15 0 12 2;
#X connect 16 0 21 0;
#X connect 17 0 21 0;
#X connect 18 0 22 0;
#X connect 19 0 21 0;
#X connect 20 0 22 0;
#X connect 21 0 15 0;
#X connect 22 0 23 0;
#X connect 23 0 14 3;
#X connect 23 0 12 3;
#X connect 26 0 14 1;
#X connect 26 0 12 1;
#X connect 26 0 59 1;
#X connect 29 0 30 0;
#X connect 30 0 26 0;
#X connect 35 0 46 0;
#X connect 36 0 37 0;
#X connect 36 0 39 0;
#X connect 37 0 36 1;
#X connect 38 0 36 0;
#X connect 39 0 40 0;
#X connect 40 0 12 0;
#X connect 40 0 62 0;
#X connect 41 0 13 0;
#X connect 41 0 13 1;
#X connect 45 0 41 0;
#X connect 45 0 42 0;
#X connect 45 0 47 0;
#X connect 45 0 48 0;
#X connect 45 0 49 0;
#X connect 45 1 41 1;
#X connect 45 1 43 0;
#X connect 45 1 47 1;
#X connect 45 1 48 1;
#X connect 45 1 49 1;
#X connect 45 2 41 2;
#X connect 45 2 44 0;
#X connect 45 2 47 2;
#X connect 45 2 48 2;
#X connect 45 2 49 2;
#X connect 46 0 45 0;
#X connect 46 0 71 0;
#X connect 46 1 45 1;
#X connect 47 0 13 0;
#X connect 47 0 13 1;
#X connect 48 0 13 0;
#X connect 48 0 13 1;
#X connect 49 0 13 0;
#X connect 49 0 13 1;
#X connect 52 0 14 0;
#X connect 53 0 54 0;
#X connect 53 0 56 0;
#X connect 54 0 53 1;
#X connect 55 0 53 0;
#X connect 56 0 52 0;
#X connect 57 0 46 1;
#X connect 57 0 55 0;
#X connect 58 0 59 0;
#X connect 58 0 60 0;
#X connect 59 0 13 0;
#X connect 59 0 13 1;
#X connect 60 0 13 0;
#X connect 60 0 13 1;
#X connect 62 0 13 0;
#X connect 62 0 13 1;
#X connect 64 0 65 0;
#X connect 66 0 65 0;
#X connect 71 0 72 0;
#X connect 72 0 65 0;
#X connect 72 0 70 0;
