#N canvas 87 134 691 443 10;
#X obj 101 117 cnv 15 500 60 empty empty empty 20 12 0 14 -233017 -66577
0;
#X obj -32 -1 inlet step(0-15);
#X obj -32 31 select 0 1 2 3 4 5 6 7 8 9 10 11 12 13 14 15;
#X obj 111 130 tgl 20 1 empty empty empty 17 7 0 10 -262144 -1 -1 1
1;
#X obj 96 273 f;
#X obj 96 302 select 1;
#X obj 102 350 outlet;
#X obj 141 130 tgl 20 1 empty empty empty 17 7 0 10 -262144 -1 -1 0
1;
#X obj 126 273 f;
#X obj 126 302 select 1;
#X obj 171 130 tgl 20 1 empty empty empty 17 7 0 10 -262144 -1 -1 0
1;
#X obj 156 273 f;
#X obj 156 302 select 1;
#X obj 201 130 tgl 20 1 empty empty empty 17 7 0 10 -262144 -1 -1 0
1;
#X obj 186 273 f;
#X obj 186 302 select 1;
#X obj 231 130 tgl 20 1 empty empty empty 17 7 0 10 -262144 -1 -1 1
1;
#X obj 216 273 f;
#X obj 216 302 select 1;
#X obj 261 130 tgl 20 1 empty empty empty 17 7 0 10 -262144 -1 -1 0
1;
#X obj 246 273 f;
#X obj 246 302 select 1;
#X obj 291 130 tgl 20 1 empty empty empty 17 7 0 10 -262144 -1 -1 0
1;
#X obj 276 273 f;
#X obj 276 302 select 1;
#X obj 321 130 tgl 20 1 empty empty empty 17 7 0 10 -262144 -1 -1 0
1;
#X obj 306 273 f;
#X obj 306 302 select 1;
#X obj 352 130 tgl 20 1 empty empty empty 17 7 0 10 -262144 -1 -1 1
1;
#X obj 337 273 f;
#X obj 337 302 select 1;
#X obj 382 130 tgl 20 1 empty empty empty 17 7 0 10 -262144 -1 -1 0
1;
#X obj 367 273 f;
#X obj 367 302 select 1;
#X obj 412 130 tgl 20 1 empty empty empty 17 7 0 10 -262144 -1 -1 0
1;
#X obj 397 273 f;
#X obj 397 302 select 1;
#X obj 442 130 tgl 20 1 empty empty empty 17 7 0 10 -262144 -1 -1 0
1;
#X obj 427 273 f;
#X obj 427 302 select 1;
#X obj 472 130 tgl 20 1 empty empty empty 17 7 0 10 -262144 -1 -1 1
1;
#X obj 457 273 f;
#X obj 457 302 select 1;
#X obj 502 130 tgl 20 1 empty empty empty 17 7 0 10 -262144 -1 -1 0
1;
#X obj 487 273 f;
#X obj 487 302 select 1;
#X obj 532 130 tgl 20 1 empty empty empty 17 7 0 10 -262144 -1 -1 0
1;
#X obj 517 273 f;
#X obj 517 302 select 1;
#X obj 562 130 tgl 20 1 empty empty empty 17 7 0 10 -262144 -1 -1 0
1;
#X obj 547 273 f;
#X obj 547 302 select 1;
#X connect 1 0 2 0;
#X connect 2 0 4 0;
#X connect 2 1 8 0;
#X connect 2 2 11 0;
#X connect 2 3 14 0;
#X connect 2 4 17 0;
#X connect 2 5 20 0;
#X connect 2 6 23 0;
#X connect 2 7 26 0;
#X connect 2 8 29 0;
#X connect 2 9 32 0;
#X connect 2 10 35 0;
#X connect 2 11 38 0;
#X connect 2 12 41 0;
#X connect 2 13 44 0;
#X connect 2 14 47 0;
#X connect 2 15 50 0;
#X connect 3 0 4 1;
#X connect 4 0 5 0;
#X connect 5 0 6 0;
#X connect 7 0 8 1;
#X connect 8 0 9 0;
#X connect 9 0 6 0;
#X connect 10 0 11 1;
#X connect 11 0 12 0;
#X connect 12 0 6 0;
#X connect 13 0 14 1;
#X connect 14 0 15 0;
#X connect 15 0 6 0;
#X connect 16 0 17 1;
#X connect 17 0 18 0;
#X connect 18 0 6 0;
#X connect 19 0 20 1;
#X connect 20 0 21 0;
#X connect 21 0 6 0;
#X connect 22 0 23 1;
#X connect 23 0 24 0;
#X connect 24 0 6 0;
#X connect 25 0 26 1;
#X connect 26 0 27 0;
#X connect 27 0 6 0;
#X connect 28 0 29 1;
#X connect 29 0 30 0;
#X connect 30 0 6 0;
#X connect 31 0 32 1;
#X connect 32 0 33 0;
#X connect 34 0 35 1;
#X connect 35 0 36 0;
#X connect 37 0 38 1;
#X connect 38 0 39 0;
#X connect 40 0 41 1;
#X connect 41 0 42 0;
#X connect 43 0 44 1;
#X connect 44 0 45 0;
#X connect 46 0 47 1;
#X connect 47 0 48 0;
#X connect 49 0 50 1;
#X connect 50 0 51 0;
#X coords 0 -1 1 1 501 80 1 100 100;
