#N canvas 475 31 609 656 10;
#X obj 97 56 inlet voicenumber;
#X obj 237 56 inlet pitch;
#X obj 327 56 inlet velocity;
#X obj 97 92 select \$1;
#X obj 148 119 bng 15 250 50 0 empty empty empty 17 7 0 10 -262144
-1 -1;
#X msg 97 119 1;
#X msg 148 140 0;
#X obj 115 236 spigot;
#X obj 199 236 spigot;
#X obj 115 265 mtof;
#X obj 115 292 osc~;
#X obj 115 523 *~;
#X obj 115 563 outlet~;
#X obj 226 348 maxlib/scale 0 127 0 1000;
#X msg 153 441 1 50;
#X obj 234 396 delay 50;
#X obj 234 461 pack 0 0;
#X obj 153 496 line~;
#X msg 234 427 0;
#X floatatom 413 296 5 0 0 0 - - -;
#X floatatom 404 377 5 0 0 0 - - -;
#X obj 305 159 t f f;
#X obj 286 239 spigot;
#X floatatom 300 291 5 0 0 0 - - -;
#X obj 319 186 > 0;
#X obj 332 396 bng 15 250 50 0 empty empty empty 17 7 0 10 -262144
-1 -1;
#X obj 199 278 t b f;
#X connect 0 0 3 0;
#X connect 1 0 7 0;
#X connect 2 0 19 0;
#X connect 2 0 21 0;
#X connect 3 0 5 0;
#X connect 3 1 4 0;
#X connect 4 0 6 0;
#X connect 5 0 7 1;
#X connect 5 0 8 1;
#X connect 6 0 8 1;
#X connect 6 0 7 1;
#X connect 7 0 9 0;
#X connect 8 0 26 0;
#X connect 9 0 10 0;
#X connect 10 0 11 0;
#X connect 11 0 12 0;
#X connect 13 0 16 1;
#X connect 13 0 20 0;
#X connect 13 0 25 0;
#X connect 14 0 17 0;
#X connect 15 0 18 0;
#X connect 16 0 17 0;
#X connect 17 0 11 1;
#X connect 18 0 16 0;
#X connect 21 0 22 0;
#X connect 21 1 24 0;
#X connect 22 0 8 0;
#X connect 22 0 23 0;
#X connect 24 0 22 1;
#X connect 26 0 14 0;
#X connect 26 0 15 0;
#X connect 26 1 13 0;
