#N canvas 535 23 557 412 10;
#X obj 35 165 netsend;
#X obj 35 35 loadbang;
#X floatatom 35 205 5 0 0 0 - - -;
#X msg 35 75 connect localhost 8005;
#X msg 65 115 send messages to nodejs;
#N canvas 545 345 450 300 sounds 1;
#X floatatom 302 77 5 0 0 0 - - -;
#X obj 162 37 netreceive 8006 0;
#X obj 162 77 print;
#X connect 1 0 2 0;
#X connect 1 1 0 0;
#X restore 246 178 pd sounds;
#X connect 0 0 2 0;
#X connect 1 0 3 0;
#X connect 3 0 0 0;
#X connect 4 0 0 0;
